<?xml version="1.0" encoding="UTF-8"?>
<svg id="Layer_1" xmlns="http://www.w3.org/2000/svg" version="1.1" viewBox="0 0 160 160">
  <path fill="#ffffff" d="M48.29,31.85l22.39,22.31c3.68-3.73,8.72-6.28,13.93-7.03,16.55-2.35,30.61,11.71,28.26,28.26-.74,5.21-3.3,10.26-7.03,13.93l22.28,22.28c.05.06.03.1,0,.16-.06.12-.72.73-.88.88-8.37,8.12-19.88,13.58-31.45,15.11-35.8,4.72-66.71-24.61-63.87-60.59,1.05-13.25,6.98-25.99,16.37-35.32ZM70.61,54.25c-8.62,8.49-9.63,22.25-2.56,32.07,8.54,11.86,26.04,13.97,36.87,3.93.14-.13.75-.7.8-.8.05-.09.04-.13-.04-.2l-35.07-34.99Z"/>
</svg>
